<svg width="16" height="16" viewBox="0 0 16 16" fill="none" xmlns="http://www.w3.org/2000/svg">
<path d="M13.6667 2H6.3334C6.24499 2 6.16021 2.03512 6.09769 2.09763C6.03518 2.16014 6.00006 2.24493 6.00006 2.33333V3C6.00006 3.08841 6.03518 3.17319 6.09769 3.2357C6.16021 3.29821 6.24499 3.33333 6.3334 3.33333H11.7267L2.10006 12.96C2.06882 12.991 2.04402 13.0279 2.0271 13.0685C2.01018 13.1091 2.00146 13.1527 2.00146 13.1967C2.00146 13.2407 2.01018 13.2842 2.0271 13.3249C2.04402 13.3655 2.06882 13.4023 2.10006 13.4333L2.5734 13.9067C2.60439 13.9379 2.64125 13.9627 2.68187 13.9796C2.72249 13.9966 2.76606 14.0053 2.81006 14.0053C2.85407 14.0053 2.89764 13.9966 2.93826 13.9796C2.97888 13.9627 3.01574 13.9379 3.04673 13.9067L12.6667 4.27333V9.66667C12.6667 9.75507 12.7018 9.83986 12.7644 9.90237C12.8269 9.96488 12.9117 10 13.0001 10H13.6667C13.7551 10 13.8399 9.96488 13.9024 9.90237C13.9649 9.83986 14.0001 9.75507 14.0001 9.66667V2.33333C14.0001 2.24493 13.9649 2.16014 13.9024 2.09763C13.8399 2.03512 13.7551 2 13.6667 2Z" fill="white"/>
</svg>
