<svg width="24" height="24" viewBox="0 0 24 24" fill="none" xmlns="http://www.w3.org/2000/svg">
<path d="M1.35348 12.361L9.13165 20.1391C9.22542 20.2329 9.3526 20.2856 9.4852 20.2856C9.61781 20.2856 9.74499 20.2329 9.83876 20.1391L10.5459 19.432C10.6396 19.3383 10.6923 19.2111 10.6923 19.0785C10.6923 18.9459 10.6396 18.8187 10.5459 18.7249L4.82537 13.0044H22.2466C22.3126 13.0047 22.378 12.9919 22.4391 12.9668C22.5001 12.9416 22.5555 12.9047 22.6022 12.858C22.6489 12.8113 22.6859 12.7559 22.711 12.6948C22.7361 12.6338 22.7489 12.5684 22.7487 12.5024V11.4983C22.7489 11.4323 22.7361 11.3669 22.711 11.3059C22.6859 11.2448 22.6489 11.1894 22.6022 11.1427C22.5555 11.096 22.5001 11.0591 22.4391 11.0339C22.378 11.0088 22.3126 10.996 22.2466 10.9963L4.82537 11.0104L10.5459 5.28991C10.6396 5.19614 10.6923 5.06896 10.6923 4.93635C10.6923 4.80375 10.6396 4.67657 10.5459 4.5828L9.83876 3.8757C9.74499 3.78193 9.61781 3.72925 9.48521 3.72925C9.3526 3.72925 9.22542 3.78193 9.13165 3.8757L1.35348 11.6539C1.25971 11.7476 1.20703 11.8748 1.20703 12.0074C1.20703 12.14 1.25971 12.2672 1.35348 12.361Z" fill="white" fill-opacity="0.8"/>
</svg>
